<svg width="95" height="41" viewBox="0 0 95 41" fill="none" xmlns="http://www.w3.org/2000/svg">
<path d="M5.114 16.5938C4.194 16.5938 3.343 16.4251 2.561 16.0878C1.79434 15.7351 1.17334 15.1601 0.698003 14.3628C0.238003 13.5501 0.00800293 12.4921 0.00800293 11.1888C0.00800293 9.97743 0.24567 8.96543 0.721003 8.15276C1.21167 7.32476 1.894 6.70376 2.768 6.28976C3.642 5.86043 4.654 5.64576 5.804 5.64576C6.632 5.64576 7.39867 5.76076 8.104 5.99076C8.80934 6.20543 9.36134 6.44309 9.76 6.70376C10.0513 6.88776 10.2813 7.11009 10.45 7.37076C10.6187 7.61609 10.703 7.93043 10.703 8.31376V15.5128H7.437V8.70476C7.253 8.59743 7.03834 8.51309 6.793 8.45176C6.563 8.37509 6.27167 8.33676 5.919 8.33676C5.16767 8.33676 4.55434 8.56676 4.079 9.02676C3.619 9.48676 3.389 10.2074 3.389 11.1888C3.389 12.2621 3.61134 13.0058 4.056 13.4198C4.50067 13.8338 5.05267 14.0408 5.712 14.0408C6.218 14.0408 6.63967 13.9488 6.977 13.7648C7.31434 13.5808 7.60567 13.3814 7.851 13.1668L7.966 15.8808C7.644 16.0801 7.24534 16.2488 6.77 16.3868C6.31 16.5248 5.758 16.5938 5.114 16.5938ZM7.483 16.9158V14.7768H10.703V17.0308C10.703 18.0888 10.45 18.9551 9.944 19.6298C9.45334 20.3044 8.77867 20.8028 7.92 21.1248C7.07667 21.4468 6.126 21.6078 5.068 21.6078C4.27067 21.6078 3.56534 21.5388 2.952 21.4008C2.33867 21.2628 1.86334 21.0864 1.526 20.8718C1.00467 20.5344 0.744003 20.0591 0.744003 19.4458C0.744003 19.1238 0.805336 18.8324 0.928003 18.5718C1.066 18.3264 1.227 18.1424 1.411 18.0198C1.825 18.2651 2.31567 18.4721 2.883 18.6408C3.45034 18.8248 4.04834 18.9168 4.677 18.9168C5.53567 18.9168 6.218 18.7558 6.724 18.4338C7.23 18.1271 7.483 17.6211 7.483 16.9158ZM13.3622 12.7298V11.0738H16.7432V12.7068C16.7432 13.4121 16.9272 13.9258 17.2952 14.2478C17.6632 14.5544 18.1769 14.7078 18.8362 14.7078C19.2502 14.7078 19.5952 14.6694 19.8712 14.5928C20.1625 14.5161 20.3772 14.4318 20.5152 14.3398V11.0738H23.8962V14.7538C23.8962 15.1218 23.8272 15.4361 23.6892 15.6968C23.5512 15.9574 23.3212 16.1874 22.9992 16.3868C22.5085 16.6934 21.9029 16.9311 21.1822 17.0998C20.4769 17.2838 19.6872 17.3758 18.8132 17.3758C17.7245 17.3758 16.7662 17.2148 15.9382 16.8928C15.1255 16.5708 14.4892 16.0724 14.0292 15.3978C13.5845 14.7078 13.3622 13.8184 13.3622 12.7298ZM23.8962 12.1088H20.5152V6.03676C20.6532 5.99076 20.8602 5.94476 21.1362 5.89876C21.4122 5.85276 21.7112 5.82976 22.0332 5.82976C22.6925 5.82976 23.1679 5.94476 23.4592 6.17476C23.7505 6.38943 23.8962 6.81109 23.8962 7.43976V12.1088ZM16.7432 12.1088H13.3622V6.03676C13.5002 5.99076 13.7072 5.94476 13.9832 5.89876C14.2592 5.85276 14.5582 5.82976 14.8802 5.82976C15.5395 5.82976 16.0149 5.94476 16.3062 6.17476C16.5975 6.38943 16.7432 6.81109 16.7432 7.43976V12.1088ZM35.5162 13.8108C35.5162 14.9301 35.0946 15.8118 34.2512 16.4558C33.4079 17.0844 32.1812 17.3988 30.5712 17.3988C29.3139 17.3988 28.2789 17.2148 27.4662 16.8468C26.6536 16.4634 26.2472 15.9191 26.2472 15.2138C26.2472 14.8918 26.3162 14.6158 26.4542 14.3858C26.5922 14.1404 26.7686 13.9488 26.9832 13.8108C27.4126 14.0714 27.9109 14.3014 28.4782 14.5008C29.0609 14.7001 29.7202 14.7998 30.4562 14.7998C31.5909 14.7998 32.1582 14.4778 32.1582 13.8338C32.1582 13.5578 32.0509 13.3431 31.8362 13.1898C31.6369 13.0211 31.3149 12.8908 30.8702 12.7988L29.8582 12.5688C28.6469 12.3234 27.7346 11.9324 27.1212 11.3958C26.5232 10.8438 26.2242 10.0924 26.2242 9.14176C26.2242 8.06843 26.6536 7.21743 27.5122 6.58876C28.3862 5.96009 29.5592 5.64576 31.0312 5.64576C31.7672 5.64576 32.4342 5.72243 33.0322 5.87576C33.6302 6.01376 34.1056 6.22843 34.4582 6.51976C34.8109 6.81109 34.9872 7.17909 34.9872 7.62376C34.9872 7.91509 34.9259 8.18343 34.8032 8.42876C34.6806 8.65876 34.5272 8.84276 34.3432 8.98076C34.1592 8.87343 33.8986 8.76609 33.5612 8.65876C33.2239 8.53609 32.8482 8.43643 32.4342 8.35976C32.0356 8.26776 31.6599 8.22176 31.3072 8.22176C30.7552 8.22176 30.3182 8.29843 29.9962 8.45176C29.6896 8.60509 29.5362 8.83509 29.5362 9.14176C29.5362 9.34109 29.6206 9.51743 29.7892 9.67076C29.9732 9.80876 30.2952 9.93143 30.7552 10.0388L31.6752 10.2458C33.0399 10.5678 34.0212 11.0201 34.6192 11.6028C35.2172 12.1701 35.5162 12.9061 35.5162 13.8108ZM37.6885 10.9588H41.0465V13.4198C41.0465 13.8644 41.1845 14.1864 41.4605 14.3858C41.7365 14.5698 42.1198 14.6618 42.6105 14.6618C42.8558 14.6618 43.1088 14.6388 43.3695 14.5928C43.6301 14.5468 43.8601 14.4854 44.0595 14.4088C44.1821 14.5468 44.2895 14.7154 44.3815 14.9148C44.4735 15.0988 44.5195 15.3211 44.5195 15.5818C44.5195 16.1031 44.3048 16.5324 43.8755 16.8698C43.4615 17.1918 42.7485 17.3528 41.7365 17.3528C40.4638 17.3528 39.4671 17.0691 38.7465 16.5018C38.0411 15.9191 37.6885 14.9684 37.6885 13.6498V10.9588ZM39.8045 8.86576V6.24376H44.2435C44.3201 6.36643 44.3968 6.54276 44.4735 6.77276C44.5501 7.00276 44.5885 7.25576 44.5885 7.53176C44.5885 7.99176 44.4811 8.32909 44.2665 8.54376C44.0671 8.75843 43.7911 8.86576 43.4385 8.86576H39.8045ZM41.0465 11.5338H37.6885V3.27676C37.8265 3.23076 38.0335 3.18476 38.3095 3.13876C38.5855 3.07743 38.8768 3.04676 39.1835 3.04676C39.8275 3.04676 40.2951 3.16176 40.5865 3.39176C40.8931 3.62176 41.0465 4.03576 41.0465 4.63376V11.5338ZM57.6016 11.5108C57.6016 12.7068 57.364 13.7494 56.8886 14.6388C56.4133 15.5128 55.7386 16.1874 54.8646 16.6628C53.9906 17.1381 52.9633 17.3758 51.7826 17.3758C50.602 17.3758 49.5746 17.1458 48.7006 16.6858C47.8266 16.2104 47.152 15.5358 46.6766 14.6618C46.2013 13.7724 45.9636 12.7221 45.9636 11.5108C45.9636 10.3148 46.2013 9.27976 46.6766 8.40576C47.1673 7.53176 47.8496 6.85709 48.7236 6.38176C49.613 5.89109 50.6326 5.64576 51.7826 5.64576C52.948 5.64576 53.9676 5.89109 54.8416 6.38176C55.7156 6.85709 56.3903 7.53943 56.8656 8.42876C57.3563 9.30276 57.6016 10.3301 57.6016 11.5108ZM51.7826 8.33676C51.062 8.33676 50.487 8.61276 50.0576 9.16476C49.6436 9.71676 49.4366 10.4988 49.4366 11.5108C49.4366 12.5381 49.6436 13.3278 50.0576 13.8798C50.4716 14.4318 51.0466 14.7078 51.7826 14.7078C52.534 14.7078 53.109 14.4318 53.5076 13.8798C53.9216 13.3124 54.1286 12.5228 54.1286 11.5108C54.1286 10.5141 53.9216 9.73976 53.5076 9.18776C53.0936 8.62043 52.5186 8.33676 51.7826 8.33676ZM68.7135 13.8108C68.7135 14.9301 68.2918 15.8118 67.4485 16.4558C66.6052 17.0844 65.3785 17.3988 63.7685 17.3988C62.5112 17.3988 61.4762 17.2148 60.6635 16.8468C59.8508 16.4634 59.4445 15.9191 59.4445 15.2138C59.4445 14.8918 59.5135 14.6158 59.6515 14.3858C59.7895 14.1404 59.9658 13.9488 60.1805 13.8108C60.6098 14.0714 61.1082 14.3014 61.6755 14.5008C62.2582 14.7001 62.9175 14.7998 63.6535 14.7998C64.7882 14.7998 65.3555 14.4778 65.3555 13.8338C65.3555 13.5578 65.2482 13.3431 65.0335 13.1898C64.8342 13.0211 64.5122 12.8908 64.0675 12.7988L63.0555 12.5688C61.8442 12.3234 60.9318 11.9324 60.3185 11.3958C59.7205 10.8438 59.4215 10.0924 59.4215 9.14176C59.4215 8.06843 59.8508 7.21743 60.7095 6.58876C61.5835 5.96009 62.7565 5.64576 64.2285 5.64576C64.9645 5.64576 65.6315 5.72243 66.2295 5.87576C66.8275 6.01376 67.3028 6.22843 67.6555 6.51976C68.0082 6.81109 68.1845 7.17909 68.1845 7.62376C68.1845 7.91509 68.1232 8.18343 68.0005 8.42876C67.8778 8.65876 67.7245 8.84276 67.5405 8.98076C67.3565 8.87343 67.0958 8.76609 66.7585 8.65876C66.4212 8.53609 66.0455 8.43643 65.6315 8.35976C65.2328 8.26776 64.8572 8.22176 64.5045 8.22176C63.9525 8.22176 63.5155 8.29843 63.1935 8.45176C62.8868 8.60509 62.7335 8.83509 62.7335 9.14176C62.7335 9.34109 62.8178 9.51743 62.9865 9.67076C63.1705 9.80876 63.4925 9.93143 63.9525 10.0388L64.8725 10.2458C66.2372 10.5678 67.2185 11.0201 67.8165 11.6028C68.4145 12.1701 68.7135 12.9061 68.7135 13.8108ZM75.5953 17.3758C74.0313 17.3758 72.7817 17.0768 71.8463 16.4788C70.9263 15.8654 70.4663 14.9531 70.4663 13.7418C70.4663 12.6991 70.7883 11.9018 71.4323 11.3498C72.0763 10.7824 73.0347 10.4374 74.3073 10.3148L77.3893 9.99276V9.71676C77.3893 9.18009 77.1823 8.79676 76.7683 8.56676C76.3543 8.33676 75.7793 8.22176 75.0433 8.22176C74.4607 8.22176 73.8857 8.29076 73.3183 8.42876C72.751 8.56676 72.245 8.73543 71.8003 8.93476C71.6163 8.79676 71.463 8.60509 71.3403 8.35976C71.2177 8.11443 71.1563 7.85376 71.1563 7.57776C71.1563 6.93376 71.5013 6.46609 72.1913 6.17476C72.636 6.00609 73.1497 5.87576 73.7323 5.78376C74.3303 5.69176 74.9053 5.64576 75.4573 5.64576C77.0367 5.64576 78.3017 5.98309 79.2523 6.65776C80.203 7.31709 80.6783 8.34443 80.6783 9.73976V14.9608C80.6783 15.3441 80.5787 15.6584 80.3793 15.9038C80.18 16.1338 79.9347 16.3331 79.6433 16.5018C79.1833 16.7778 78.6083 16.9924 77.9183 17.1458C77.2437 17.2991 76.4693 17.3758 75.5953 17.3758ZM75.5953 14.8688C75.948 14.8688 76.293 14.8304 76.6303 14.7538C76.983 14.6771 77.236 14.5928 77.3893 14.5008V12.2928L75.4343 12.4538C74.913 12.4998 74.499 12.6148 74.1923 12.7988C73.901 12.9828 73.7553 13.2588 73.7553 13.6268C73.7553 14.0101 73.901 14.3168 74.1923 14.5468C74.4837 14.7614 74.9513 14.8688 75.5953 14.8688ZM73.8473 0.95376C74.2767 0.95376 74.683 1.01509 75.0663 1.13776C75.465 1.24509 75.833 1.36009 76.1703 1.48276C76.5077 1.59009 76.7913 1.64376 77.0213 1.64376C77.3433 1.64376 77.5887 1.55176 77.7573 1.36776C77.926 1.16843 78.0487 0.984428 78.1253 0.815761H78.2403C78.6697 0.815761 79.0453 0.961427 79.3673 1.25276C79.6893 1.54409 79.8503 1.93509 79.8503 2.42576C79.8503 3.03909 79.651 3.50676 79.2523 3.82876C78.8537 4.13543 78.3477 4.28876 77.7343 4.28876C77.259 4.28876 76.8297 4.22743 76.4463 4.10476C76.063 3.98209 75.7103 3.86709 75.3883 3.75976C75.0817 3.63709 74.798 3.57576 74.5373 3.57576C74.2153 3.57576 73.97 3.66776 73.8013 3.85176C73.648 4.03576 73.5253 4.21976 73.4333 4.40376H73.3643C72.9197 4.40376 72.5363 4.26576 72.2143 3.98976C71.8923 3.69843 71.7313 3.30743 71.7313 2.81676C71.7313 2.38743 71.831 2.03476 72.0303 1.75876C72.245 1.48276 72.5133 1.28343 72.8353 1.16076C73.1727 1.02276 73.51 0.95376 73.8473 0.95376ZM94.46 11.5108C94.46 12.7068 94.2224 13.7494 93.747 14.6388C93.2717 15.5128 92.597 16.1874 91.723 16.6628C90.849 17.1381 89.8217 17.3758 88.641 17.3758C87.4604 17.3758 86.433 17.1458 85.559 16.6858C84.685 16.2104 84.0104 15.5358 83.535 14.6618C83.0597 13.7724 82.822 12.7221 82.822 11.5108C82.822 10.3148 83.0597 9.27976 83.535 8.40576C84.0257 7.53176 84.708 6.85709 85.582 6.38176C86.4714 5.89109 87.491 5.64576 88.641 5.64576C89.8064 5.64576 90.826 5.89109 91.7 6.38176C92.574 6.85709 93.2487 7.53943 93.724 8.42876C94.2147 9.30276 94.46 10.3301 94.46 11.5108ZM88.641 8.33676C87.9204 8.33676 87.3454 8.61276 86.916 9.16476C86.502 9.71676 86.295 10.4988 86.295 11.5108C86.295 12.5381 86.502 13.3278 86.916 13.8798C87.33 14.4318 87.905 14.7078 88.641 14.7078C89.3924 14.7078 89.9674 14.4318 90.366 13.8798C90.78 13.3124 90.987 12.5228 90.987 11.5108C90.987 10.5141 90.78 9.73976 90.366 9.18776C89.952 8.62043 89.377 8.33676 88.641 8.33676ZM0.675003 33.9588L4.056 34.0278V40.0078C3.918 40.0384 3.711 40.0768 3.435 40.1228C3.159 40.1688 2.86 40.1918 2.538 40.1918C1.894 40.1918 1.41867 40.0768 1.112 39.8468C0.82067 39.6168 0.675003 39.2028 0.675003 38.6048V33.9588ZM4.056 35.7758L0.675003 35.7068V25.0578C0.813003 25.0118 1.02 24.9658 1.296 24.9198C1.572 24.8738 1.871 24.8508 2.193 24.8508C2.85234 24.8508 3.32767 24.9658 3.619 25.1958C3.91034 25.4104 4.056 25.8244 4.056 26.4378V35.7758ZM11.402 40.3758C9.83799 40.3758 8.58832 40.0768 7.65299 39.4788C6.73299 38.8654 6.27299 37.9531 6.27299 36.7418C6.27299 35.6991 6.59499 34.9018 7.23899 34.3498C7.88299 33.7824 8.84132 33.4374 10.114 33.3148L13.196 32.9928V32.7168C13.196 32.1801 12.989 31.7968 12.575 31.5668C12.161 31.3368 11.586 31.2218 10.85 31.2218C10.2673 31.2218 9.69232 31.2908 9.12499 31.4288C8.55765 31.5668 8.05165 31.7354 7.60699 31.9348C7.42299 31.7968 7.26965 31.6051 7.14699 31.3598C7.02432 31.1144 6.96299 30.8538 6.96299 30.5778C6.96299 29.9338 7.30799 29.4661 7.99799 29.1748C8.44265 29.0061 8.95632 28.8758 9.53899 28.7838C10.137 28.6918 10.712 28.6458 11.264 28.6458C12.8433 28.6458 14.1083 28.9831 15.059 29.6578C16.0097 30.3171 16.485 31.3444 16.485 32.7398V37.9608C16.485 38.3441 16.3853 38.6584 16.186 38.9038C15.9867 39.1338 15.7413 39.3331 15.45 39.5018C14.99 39.7778 14.415 39.9924 13.725 40.1458C13.0503 40.2991 12.276 40.3758 11.402 40.3758ZM11.402 37.8688C11.7547 37.8688 12.0997 37.8304 12.437 37.7538C12.7897 37.6771 13.0427 37.5928 13.196 37.5008V35.2928L11.241 35.4538C10.7197 35.4998 10.3057 35.6148 9.99899 35.7988C9.70765 35.9828 9.56199 36.2588 9.56199 36.6268C9.56199 37.0101 9.70765 37.3168 9.99899 37.5468C10.2903 37.7614 10.758 37.8688 11.402 37.8688ZM29.6687 32.8778V35.0398H26.2877V32.9928C26.2877 32.4101 26.119 31.9884 25.7817 31.7278C25.4443 31.4671 25.0073 31.3368 24.4707 31.3368C24.0873 31.3368 23.7347 31.3828 23.4127 31.4748C23.0907 31.5668 22.7917 31.6818 22.5157 31.8198V35.0398H19.1347V31.4518C19.1347 31.0684 19.2113 30.7541 19.3647 30.5088C19.5333 30.2481 19.7787 30.0181 20.1007 29.8188C20.5913 29.4814 21.2123 29.2054 21.9637 28.9908C22.7303 28.7608 23.5737 28.6458 24.4937 28.6458C26.1497 28.6458 27.4223 29.0138 28.3117 29.7498C29.2163 30.4704 29.6687 31.5131 29.6687 32.8778ZM19.1347 33.9818H22.5157V40.0078C22.3777 40.0384 22.1707 40.0768 21.8947 40.1228C21.6187 40.1688 21.3197 40.1918 20.9977 40.1918C20.3537 40.1918 19.8783 40.0768 19.5717 39.8468C19.2803 39.6168 19.1347 39.2028 19.1347 38.6048V33.9818ZM26.2877 33.9818H29.6687V40.0078C29.5307 40.0384 29.3237 40.0768 29.0477 40.1228C28.7717 40.1688 28.4727 40.1918 28.1507 40.1918C27.5067 40.1918 27.0313 40.0768 26.7247 39.8468C26.4333 39.6168 26.2877 39.2028 26.2877 38.6048V33.9818ZM38.3212 31.3598C37.4778 31.3598 36.7572 31.6358 36.1592 32.1878C35.5765 32.7244 35.2852 33.5141 35.2852 34.5568C35.2852 35.5841 35.5688 36.3584 36.1362 36.8798C36.7035 37.4011 37.4242 37.6618 38.2982 37.6618C38.8042 37.6618 39.2412 37.6004 39.6092 37.4778C39.9925 37.3398 40.3222 37.2018 40.5982 37.0638C40.8588 37.2478 41.0582 37.4471 41.1962 37.6618C41.3342 37.8764 41.4032 38.1448 41.4032 38.4668C41.4032 39.0341 41.0965 39.4941 40.4832 39.8468C39.8698 40.1841 39.0188 40.3528 37.9302 40.3528C36.7188 40.3528 35.6532 40.1381 34.7332 39.7088C33.8132 39.2794 33.1002 38.6278 32.5942 37.7538C32.1035 36.8798 31.8582 35.8141 31.8582 34.5568C31.8582 33.2228 32.1265 32.1264 32.6632 31.2678C33.2152 30.3938 33.9435 29.7421 34.8482 29.3128C35.7682 28.8681 36.7648 28.6458 37.8382 28.6458C38.8962 28.6458 39.7242 28.8374 40.3222 29.2208C40.9355 29.6041 41.2422 30.0794 41.2422 30.6468C41.2422 30.9228 41.1732 31.1758 41.0352 31.4058C40.9125 31.6204 40.7668 31.8044 40.5982 31.9578C40.3068 31.8044 39.9695 31.6664 39.5862 31.5438C39.2182 31.4211 38.7965 31.3598 38.3212 31.3598ZM54.1297 35.3388H50.7487V33.2918C50.7487 32.5864 50.5647 32.0881 50.1967 31.7968C49.8287 31.4901 49.3687 31.3368 48.8167 31.3368C48.326 31.3368 47.8814 31.4288 47.4827 31.6128C47.0994 31.7968 46.762 32.0038 46.4707 32.2338L46.4017 29.4968C46.7544 29.2821 47.1914 29.0904 47.7127 28.9218C48.234 28.7378 48.809 28.6458 49.4377 28.6458C50.879 28.6458 52.0214 29.0214 52.8647 29.7728C53.708 30.5088 54.1297 31.6204 54.1297 33.1078V35.3388ZM43.5957 33.9588H46.9767V40.0078C46.8387 40.0384 46.6317 40.0768 46.3557 40.1228C46.0797 40.1688 45.7807 40.1918 45.4587 40.1918C44.8147 40.1918 44.3394 40.0768 44.0327 39.8468C43.7414 39.6168 43.5957 39.2028 43.5957 38.6048V33.9588ZM50.7487 33.9588H54.1297V40.0078C53.9917 40.0384 53.7847 40.0768 53.5087 40.1228C53.2327 40.1688 52.9337 40.1918 52.6117 40.1918C51.9677 40.1918 51.4924 40.0768 51.1857 39.8468C50.8944 39.6168 50.7487 39.2028 50.7487 38.6048V33.9588ZM46.9767 35.7068H43.5957V25.0578C43.7337 25.0118 43.9407 24.9658 44.2167 24.9198C44.4927 24.8738 44.7917 24.8508 45.1137 24.8508C45.773 24.8508 46.2484 24.9658 46.5397 25.1958C46.831 25.4104 46.9767 25.8244 46.9767 26.4378V35.7068ZM58.4111 36.1208L58.2731 33.8208L64.0001 32.9238C63.9541 32.4791 63.7624 32.0804 63.4251 31.7278C63.0878 31.3598 62.5894 31.1758 61.9301 31.1758C61.2248 31.1758 60.6421 31.4134 60.1821 31.8888C59.7221 32.3488 59.4844 33.0158 59.4691 33.8898L59.5611 35.4538C59.7144 36.2971 60.0824 36.9028 60.6651 37.2708C61.2478 37.6234 61.9378 37.7998 62.7351 37.7998C63.3791 37.7998 63.9848 37.7154 64.5521 37.5468C65.1194 37.3628 65.5794 37.1634 65.9321 36.9488C66.1468 37.0868 66.3308 37.2784 66.4841 37.5238C66.6374 37.7691 66.7141 38.0298 66.7141 38.3058C66.7141 38.7658 66.5301 39.1491 66.1621 39.4558C65.8094 39.7624 65.3111 39.9924 64.6671 40.1458C64.0384 40.2991 63.3178 40.3758 62.5051 40.3758C61.3244 40.3758 60.2664 40.1534 59.3311 39.7088C58.3958 39.2641 57.6598 38.5971 57.1231 37.7078C56.5864 36.8184 56.3181 35.7068 56.3181 34.3728C56.3181 33.3914 56.4714 32.5404 56.7781 31.8198C57.0848 31.0991 57.4988 30.5088 58.0201 30.0488C58.5568 29.5734 59.1548 29.2208 59.8141 28.9908C60.4888 28.7608 61.1864 28.6458 61.9071 28.6458C62.9651 28.6458 63.8851 28.8604 64.6671 29.2898C65.4644 29.7038 66.0854 30.2711 66.5301 30.9918C66.9748 31.7124 67.1971 32.5481 67.1971 33.4988C67.1971 33.9741 67.0668 34.3344 66.8061 34.5798C66.5454 34.8098 66.1851 34.9631 65.7251 35.0398L58.4111 36.1208ZM78.2594 36.8108C78.2594 37.9301 77.8377 38.8118 76.9944 39.4558C76.1511 40.0844 74.9244 40.3988 73.3144 40.3988C72.0571 40.3988 71.0221 40.2148 70.2094 39.8468C69.3967 39.4634 68.9904 38.9191 68.9904 38.2138C68.9904 37.8918 69.0594 37.6158 69.1974 37.3858C69.3354 37.1404 69.5117 36.9488 69.7264 36.8108C70.1557 37.0714 70.6541 37.3014 71.2214 37.5008C71.8041 37.7001 72.4634 37.7998 73.1994 37.7998C74.3341 37.7998 74.9014 37.4778 74.9014 36.8338C74.9014 36.5578 74.7941 36.3431 74.5794 36.1898C74.3801 36.0211 74.0581 35.8908 73.6134 35.7988L72.6014 35.5688C71.3901 35.3234 70.4777 34.9324 69.8644 34.3958C69.2664 33.8438 68.9674 33.0924 68.9674 32.1418C68.9674 31.0684 69.3967 30.2174 70.2554 29.5888C71.1294 28.9601 72.3024 28.6458 73.7744 28.6458C74.5104 28.6458 75.1774 28.7224 75.7754 28.8758C76.3734 29.0138 76.8487 29.2284 77.2014 29.5198C77.5541 29.8111 77.7304 30.1791 77.7304 30.6238C77.7304 30.9151 77.6691 31.1834 77.5464 31.4288C77.4237 31.6588 77.2704 31.8428 77.0864 31.9808C76.9024 31.8734 76.6417 31.7661 76.3044 31.6588C75.9671 31.5361 75.5914 31.4364 75.1774 31.3598C74.7787 31.2678 74.4031 31.2218 74.0504 31.2218C73.4984 31.2218 73.0614 31.2984 72.7394 31.4518C72.4327 31.6051 72.2794 31.8351 72.2794 32.1418C72.2794 32.3411 72.3637 32.5174 72.5324 32.6708C72.7164 32.8088 73.0384 32.9314 73.4984 33.0388L74.4184 33.2458C75.7831 33.5678 76.7644 34.0201 77.3624 34.6028C77.9604 35.1701 78.2594 35.9061 78.2594 36.8108Z" fill="black"/>
</svg>
